<svg width="1440" height="1062" viewBox="0 0 1440 1062" fill="none" xmlns="http://www.w3.org/2000/svg">
<g clip-path="url(#clip0_258_167)">
<g opacity="0.05">
<path fill-rule="evenodd" clip-rule="evenodd" d="M104.996 75H227.322C233.065 75 237.722 79.6562 237.722 85.4C237.722 85.4915 237.72 85.5831 237.718 85.6746L212.268 1048.97C212.119 1054.61 207.508 1059.1 201.871 1059.1H66.8204C61.0766 1059.1 56.4203 1054.44 56.4203 1048.7C56.4203 1048.56 56.4231 1048.43 56.4285 1048.29L94.6042 84.9881C94.8253 79.409 99.4125 75 104.996 75ZM-154.322 75H-45.2635C-39.5733 75 -34.9395 79.5729 -34.8644 85.2626L-22.1392 1048.56C-22.0633 1054.31 -26.6576 1059.02 -32.4009 1059.1C-32.4467 1059.1 -32.4925 1059.1 -32.5383 1059.1H-128.871C-134.508 1059.1 -139.119 1054.61 -139.268 1048.97L-164.718 85.6746C-164.87 79.9329 -160.338 75.1553 -154.596 75.0036C-154.505 75.0012 -154.413 75 -154.322 75ZM-362.6 75H-266.82C-261.077 75 -256.42 79.6562 -256.42 85.4C-256.42 85.5373 -256.423 85.6746 -256.428 85.8118L-294.604 1049.11C-294.825 1054.69 -299.412 1059.1 -304.996 1059.1H-362.6C-368.344 1059.1 -373 1054.44 -373 1048.7V85.4C-373 79.6562 -368.344 75 -362.6 75Z" stroke="#007BFF" stroke-width="4.5"/>
<path fill-rule="evenodd" clip-rule="evenodd" d="M326.538 75H461.322C467.065 75 471.722 79.6562 471.722 85.4C471.722 85.4915 471.72 85.5831 471.718 85.6746L446.268 1048.97C446.119 1054.61 441.508 1059.1 435.871 1059.1H339.264C333.573 1059.1 328.94 1054.53 328.865 1048.84L316.139 85.5373C316.063 79.7941 320.658 75.0767 326.401 75.0009C326.447 75.0003 326.493 75 326.538 75ZM547.82 75H708.18C713.924 75 718.58 79.6562 718.58 85.4C718.58 85.5373 718.577 85.6746 718.572 85.8118L680.396 1049.11C680.175 1054.69 675.588 1059.1 670.004 1059.1H585.996C580.413 1059.1 575.825 1054.69 575.604 1049.11L537.429 85.8118C537.201 80.0725 541.669 75.2356 547.409 75.0081C547.546 75.0027 547.683 75 547.82 75ZM807.129 75H877.871C883.508 75 888.119 79.4905 888.268 85.1253L913.718 1048.43C913.87 1054.17 909.338 1058.94 903.596 1059.1C903.505 1059.1 903.413 1059.1 903.322 1059.1H781.678C775.935 1059.1 771.278 1054.44 771.278 1048.7C771.278 1048.61 771.28 1048.52 771.282 1048.43L796.733 85.1253C796.881 79.4905 801.492 75 807.129 75Z" stroke="#007BFF" stroke-width="4.5"/>
<path fill-rule="evenodd" clip-rule="evenodd" d="M1015.27 -6.89996H1111.85C1117.5 -6.89996 1122.11 -2.39684 1122.25 3.24645L1147.74 1048.45C1147.88 1054.19 1143.34 1058.96 1137.6 1059.1C1137.51 1059.1 1137.43 1059.1 1137.34 1059.1H1002.53C996.784 1059.1 992.128 1054.44 992.128 1048.7C992.128 1048.66 992.128 1048.62 992.128 1048.57L1004.87 3.37322C1004.94 -2.32066 1009.58 -6.89996 1015.27 -6.89996ZM1224.05 -6.89996H1371.6C1377.34 -6.89996 1382 -2.24372 1382 3.50004V1048.7C1382 1054.44 1377.34 1059.1 1371.6 1059.1H1287.79C1282.29 1059.1 1277.74 1054.82 1277.4 1049.33L1213.67 4.13301C1213.32 -1.60011 1217.69 -6.5311 1223.42 -6.88068C1223.63 -6.89353 1223.84 -6.89996 1224.05 -6.89996Z" stroke="#007BFF" stroke-width="4.5"/>
<path d="M1908.7 137.4H-444.5C-450.244 137.4 -454.9 142.056 -454.9 147.8V244C-454.9 249.744 -450.244 254.4 -444.5 254.4H1908.7C1914.44 254.4 1919.1 249.744 1919.1 244V147.8C1919.1 142.056 1914.44 137.4 1908.7 137.4Z" stroke="#007BFF" stroke-width="4.5"/>
<path d="M1908.7 371.4H-444.5C-450.244 371.4 -454.9 376.056 -454.9 381.8V478C-454.9 483.744 -450.244 488.4 -444.5 488.4H1908.7C1914.44 488.4 1919.1 483.744 1919.1 478V381.8C1919.1 376.056 1914.44 371.4 1908.7 371.4Z" stroke="#007BFF" stroke-width="4.5"/>
<path d="M1908.7 605.4H-444.5C-450.244 605.4 -454.9 610.056 -454.9 615.8V712C-454.9 717.744 -450.244 722.4 -444.5 722.4H1908.7C1914.44 722.4 1919.1 717.744 1919.1 712V615.8C1919.1 610.056 1914.44 605.4 1908.7 605.4Z" stroke="#007BFF" stroke-width="4.5"/>
<path d="M1908.7 839.4H-444.5C-450.244 839.4 -454.9 844.056 -454.9 849.8V946C-454.9 951.744 -450.244 956.4 -444.5 956.4H1908.7C1914.44 956.4 1919.1 951.744 1919.1 946V849.8C1919.1 844.056 1914.44 839.4 1908.7 839.4Z" stroke="#007BFF" stroke-width="4.5"/>
</g>
</g>
<defs>
<clipPath id="clip0_258_167">
<rect width="2720" height="1071" fill="white" transform="translate(-609 -9)"/>
</clipPath>
</defs>
</svg>
